PathFileType	4	(X/Y/Z)	c:/Users/goper/Files/vsCode/490R/osim_files/A06/A06_SSWS_02.trc
DataRate	CameraRate	NumFrames	NumMarkers	Units                	OrigDataRate	OrigDataStartFrame	OrigNumFrames
120.00	120.00	4	36	mm	120.0	699	1118
                Frame#	Time	LPSIS			LASIS			LTH1			LTH2			LTH3			LTH4			LLFE			LMFE			LSH1			LSH2			LSH3			LSH4			LLMAL			LMMAL			LCAL			LMTP5			LTOE			LMTP1			RPSIS			RASIS			RTH1			RTH2			RTH3			RTH4			RLFE			RMFE			RSH1			RSH2			RSH3			RSH4			RLMAL			RMMAL			RCAL			RMTP1			RTOE			RMTP5		
		X1	Y1	Z1	X2	Y2	Z2	X3	Y3	Z3	X4	Y4	Z4	X5	Y5	Z5	X6	Y6	Z6	X7	Y7	Z7	X8	Y8	Z8	X9	Y9	Z9	X10	Y10	Z10	X11	Y11	Z11	X12	Y12	Z12	X13	Y13	Z13	X14	Y14	Z14	X15	Y15	Z15	X16	Y16	Z16	X17	Y17	Z17	X18	Y18	Z18	X19	Y19	Z19	X20	Y20	Z20	X21	Y21	Z21	X22	Y22	Z22	X23	Y23	Z23	X24	Y24	Z24	X25	Y25	Z25	X26	Y26	Z26	X27	Y27	Z27	X28	Y28	Z28	X29	Y29	Z29	X30	Y30	Z30	X31	Y31	Z31	X32	Y32	Z32	X33	Y33	Z33	X34	Y34	Z34	X35	Y35	Z35	X36	Y36	Z36

699	5.81667	-1924.80127	995.74530	296.53293	-2116.45288	940.20129	351.03546	-1995.47571	584.22046	379.36978	-1996.55469	541.79376	373.14536	-2056.85034	577.22974	363.11539	-2046.92480	536.10675	359.11121	-2007.73694	466.63306	352.04575	-2000.50684	463.00656	242.65784	-1936.16895	381.89844	369.80020	-1935.19275	335.74936	373.11679	-1995.94995	373.57477	357.82291	-1987.28076	332.95114	360.23605	-1892.81873	89.56777	324.10873	-1907.09375	100.91707	238.19125	-1824.33887	80.84495	275.33282	-2005.62146	40.10501	341.61450	-2045.10889	58.94061	284.74902	-2019.17603	51.07068	247.34853	-1913.86108	1014.66272	166.51570	-2086.62476	988.71716	100.14795	-2086.13379	598.79803	55.53981	-2105.27075	560.64313	53.99935	-2143.02588	620.35907	67.00177	-2155.77246	578.23730	62.40408	-2166.83789	460.85724	80.13981	-2164.92603	458.75333	168.69969	-2181.89697	303.86295	89.11965	-2192.02026	258.41199	89.90636	-2241.51611	314.28729	103.36405	-2245.42871	266.06259	98.25963	-2225.03784	122.26479	78.45852	-2232.95972	128.16963	164.02045	-2173.53711	86.33713	124.27407	-2372.34839	116.51993	160.47087	-2385.39038	133.35435	121.77862	-2365.35352	112.44547	71.42667
700	5.82500	-1932.65735	994.11383	295.71301	-2124.31616	938.83185	350.91870	-2001.04138	583.64679	379.26721	-2001.82007	540.85260	373.23608	-2062.28345	576.04285	362.68076	-2049.73120	532.22260	358.17923	-2011.69958	465.88397	351.93237	-2004.29370	462.48935	242.39442	-1939.22986	381.90033	369.61035	-1937.79980	335.69864	372.98523	-1998.87781	372.90881	357.73761	-1990.38232	333.04135	359.39615	-1893.04358	89.69285	324.10950	-1907.34705	101.07749	238.16238	-1824.45569	81.07778	275.32620	-2005.61926	39.97187	341.64966	-2045.38232	58.92892	284.84622	-2019.51270	51.09408	247.58971	-1921.89392	1012.83429	165.65012	-2094.88623	986.79376	100.01562	-2095.42163	597.59796	55.03540	-2115.24341	559.13678	53.26072	-2151.66284	619.29767	66.68020	-2164.96777	577.33575	61.99681	-2177.15625	459.97208	79.25068	-2175.02368	457.53415	167.78227	-2198.02881	303.61218	87.87011	-2210.18701	258.53497	88.66478	-2257.27808	316.27707	102.39082	-2263.02026	268.28079	97.16866	-2248.23071	123.73147	76.87195	-2255.61499	129.61455	162.52478	-2198.53149	85.40826	122.47966	-2395.22095	123.40422	159.39130	-2406.75732	141.30652	120.28945	-2388.60767	119.48193	70.17149
701	5.83333	-1940.55676	992.41858	294.93420	-2132.30688	937.46490	350.77734	-2006.86121	582.98547	379.05249	-2007.07593	540.13544	373.03094	-2067.85938	574.83856	362.36743	-2055.07739	531.16614	357.79300	-2015.96619	465.16147	351.87946	-2007.44824	461.92813	241.72101	-1942.37598	381.77292	369.46774	-1940.48645	335.62949	372.86349	-2002.02063	372.29425	357.69089	-1992.60901	331.80026	360.11707	-1893.30872	89.85573	324.14835	-1907.63135	101.24831	238.13393	-1824.69067	81.28049	275.35474	-2005.72205	39.86802	341.69034	-2045.52112	58.71167	284.88461	-2019.63074	51.02715	247.59476	-1930.07495	1010.88922	164.73590	-2103.12183	984.63605	99.82742	-2104.59619	595.77509	54.46072	-2124.66699	558.18903	52.71705	-2160.56982	618.49316	66.31809	-2174.87622	576.77637	61.48357	-2188.67773	459.61139	78.27971	-2186.38086	456.92023	166.88551	-2214.21753	303.92712	86.77064	-2227.38770	259.36383	87.33963	-2272.88306	318.20206	101.26692	-2278.95361	271.34506	95.05124	-2269.41431	125.40344	75.15057	-2276.82715	131.65889	161.10019	-2220.82886	85.98576	120.89875	-2416.67065	129.68948	158.19278	-2427.68677	147.91939	119.11497	-2410.44092	125.64435	68.96956
702	5.84167	-1948.40637	990.64478	294.03314	-2140.12573	935.84015	350.53973	-2012.64746	582.31598	378.92694	-2012.53625	539.55658	372.84781	-2073.40894	573.47089	361.99460	-2060.37817	530.05518	357.38049	-2020.08228	464.32251	351.79553	-2011.44604	461.37357	241.50217	-1945.70349	381.70273	369.38083	-1943.26147	335.56216	372.79648	-2005.21667	371.51712	357.64050	-1995.45703	331.63181	359.26666	-1893.63855	90.04668	324.20184	-1907.93896	101.44868	238.14748	-1824.82422	81.50497	275.35608	-2005.75830	39.75317	341.71704	-2045.60291	58.50933	284.91068	-2019.74353	50.93308	247.62518	-1938.14661	1008.93213	163.80626	-2111.39990	982.30530	99.59888	-2114.53516	594.50806	53.94116	-2135.09937	557.21857	52.13414	-2170.82739	618.29980	65.57518	-2185.06445	576.44312	60.76455	-2200.58179	459.52142	77.39927	-2198.48926	456.79144	166.02336	-2229.92627	304.48883	85.69156	-2244.31714	260.21307	86.35329	-2288.27539	320.27655	100.20115	-2295.56738	273.49084	93.89931	-2289.39136	127.46474	73.80548	-2296.97534	133.80763	159.84146	-2242.46973	86.28577	119.67344	-2436.70752	135.25439	156.59151	-2447.32202	153.76776	117.51595	-2430.17261	131.11433	67.32123
